<svg viewBox="0 0 76 41" fill="none" xmlns="http://www.w3.org/2000/svg">
  <path d="M7.51573 3.71094C6.08091 3.71094 4.73719 4.14639 3.62122 4.85687L3.23404 3.71094H0V21.8167H3.62122V16.9579C4.73719 17.6913 6.08091 18.1038 7.51573 18.1038C11.4786 18.1038 14.6898 14.8723 14.6898 10.9074C14.6898 6.94246 11.4786 3.71094 7.51573 3.71094ZM7.51573 14.8494C5.46598 14.8494 3.75787 13.2451 3.62122 11.2053V10.6324C3.75787 8.5926 5.46598 6.9883 7.51573 6.9883C9.67935 6.9883 11.433 8.75304 11.433 10.9074C11.433 13.0847 9.67935 14.8494 7.51573 14.8494Z" fill="#FFFFFF"/>
  <path d="M23.8462 18.1293C25.6454 18.1293 27.3535 17.4188 28.6289 16.1354C29.9043 14.852 30.6103 13.1331 30.6103 11.3225V4.17188H26.6475V11.6204C26.6475 13.2477 25.3266 14.5769 23.7095 14.5769C22.9352 14.5769 22.1836 14.279 21.637 13.706C21.0904 13.156 20.7716 12.3997 20.7716 11.6204V4.17188H17.082V11.3225C17.082 15.0582 20.1111 18.1293 23.8462 18.1293Z" fill="#FFFFFF"/>
  <path d="M37.2128 10.2198C37.2128 8.59261 38.5338 7.26333 40.1508 7.26333C40.9252 7.26333 41.6767 7.56127 42.2233 8.13423C42.7699 8.68428 43.0888 9.4406 43.0888 10.2198V17.6684H46.7783V10.5178C46.7783 6.75911 43.7492 3.71094 40.0142 3.71094C38.2149 3.71094 36.5068 4.42141 35.2314 5.70486C33.956 6.9883 33.25 8.7072 33.25 10.5178V17.6684H37.2128V10.2198V10.2198Z" fill="#FFFFFF"/>
  <path d="M61.2884 15.9514C61.2428 15.9972 61.1973 16.066 61.1289 16.1118C59.8535 17.3952 58.1454 18.1057 56.3462 18.1057C52.6111 18.1057 49.582 15.0575 49.582 11.2989V0H53.2716V4.14827H59.3753V7.7465H53.2716V11.5968C53.2716 12.3761 53.5676 13.1324 54.137 13.6824C54.7064 14.2325 55.4352 14.5533 56.2095 14.5533C57.2116 14.5533 58.0771 14.0491 58.6237 13.2928L61.2884 15.9514Z" fill="#FFFFFF"/>
  <path d="M68.8264 18.1273C72.7893 18.1273 76.0006 14.8958 76.0006 10.9308C76.0006 6.96591 72.7893 3.73438 68.8264 3.73438C64.8636 3.73438 61.6523 6.96591 61.6523 10.9308C61.6523 14.8958 64.8636 18.1273 68.8264 18.1273ZM68.8264 6.98882C70.9901 6.98882 72.7437 8.75356 72.7437 10.9079C72.7437 13.0623 70.9901 14.827 68.8264 14.827C66.6628 14.827 64.9092 13.0623 64.9092 10.9079C64.9092 8.75356 66.6628 6.98882 68.8264 6.98882Z" fill="#FFFFFF"/>
  <path d="M18.2195 21.8203C16.7847 21.8203 15.441 22.2558 14.325 22.9662L13.9378 21.8891H10.7266V39.9031H14.325V35.0444C15.441 35.7778 16.7847 36.1903 18.2195 36.1903C22.1823 36.1903 25.3936 32.9588 25.3936 28.9938C25.3936 25.0289 22.1823 21.8203 18.2195 21.8203ZM18.2195 32.9359C16.1698 32.9359 14.4616 31.3315 14.325 29.2918V28.7188C14.4616 26.6791 16.1698 25.0748 18.2195 25.0748C20.3831 25.0748 22.1368 26.8395 22.1368 28.9938C22.1368 31.1711 20.3831 32.9359 18.2195 32.9359Z" fill="#FFFFFF"/>
  <path d="M39.0574 21.8203L38.6702 23.0121C37.5542 22.2787 36.2105 21.8661 34.7757 21.8661C30.8128 21.8661 27.6016 25.0977 27.6016 29.0626C27.6016 33.0275 30.8128 36.2591 34.7757 36.2591C36.2105 36.2591 37.5542 35.8236 38.6702 35.1131L39.0574 36.1903H42.2686V21.8203H39.0574V21.8203ZM34.7757 32.9817C32.612 32.9817 30.8584 31.2169 30.8584 29.0626C30.8584 26.9082 32.612 25.1435 34.7757 25.1435C36.8254 25.1435 38.5335 26.7478 38.6702 28.7876V29.3605C38.5108 31.3774 36.8254 32.9817 34.7757 32.9817Z" fill="#FFFFFF"/>
  <path d="M59.0769 34.1486L58.3253 32.8651C59.0086 31.765 59.3958 30.4587 59.3958 29.0836C59.3958 25.1186 56.1845 21.8871 52.2216 21.8871C51.2879 21.8871 50.3996 22.0705 49.5797 22.3913L48.0538 20.3516L45.5714 22.2538L47.0062 24.1561C45.7991 25.4395 45.0703 27.1813 45.0703 29.0836C45.0703 33.0485 48.2816 36.28 52.2444 36.28C53.6337 36.28 54.9319 35.8675 56.0478 35.1799L56.3895 35.7758C56.7539 36.3946 56.5261 36.9217 56.4122 37.128C56.2984 37.3343 55.9567 37.8156 55.2507 37.8156H47.325V41.0013H55.2507C56.8905 41.0013 58.3709 40.1304 59.168 38.7094C59.9424 37.2884 59.9196 35.5695 59.0769 34.1486ZM52.1989 33.0027C50.0352 33.0027 48.2816 31.2379 48.2816 29.0836C48.2816 26.9292 50.0352 25.1645 52.1989 25.1645C54.3625 25.1645 56.1162 26.9292 56.1162 29.0836C56.1162 31.2608 54.3625 33.0027 52.1989 33.0027Z" fill="#FFFFFF"/>
  <path d="M68.8264 21.8906C64.8636 21.8906 61.6523 25.1222 61.6523 29.0871C61.6523 33.052 64.8636 36.2835 68.8264 36.2835C72.7893 36.2835 76.0006 33.052 76.0006 29.0871C76.0006 25.1222 72.7893 21.8906 68.8264 21.8906ZM68.8264 33.0062C66.6628 33.0062 64.9092 31.2414 64.9092 29.0871C64.9092 26.9327 66.6628 25.168 68.8264 25.168C70.9901 25.168 72.7437 26.9327 72.7437 29.0871C72.7437 31.2643 70.9901 33.0062 68.8264 33.0062Z" fill="#FFFFFF"/>
</svg>
